<svg viewBox="0 0 128 128" xmlns="http://www.w3.org/2000/svg">
  <defs>
    <radialGradient id="badge" cx="34%" cy="26%" r="85%">
      <stop offset="0%" stop-color="#fff0ee"/>
      <stop offset="30%" stop-color="#fca5a5"/>
      <stop offset="68%" stop-color="#dc2626"/>
      <stop offset="100%" stop-color="#5c0a0a"/>
    </radialGradient>
    <linearGradient id="cap" x1="10%" y1="0%" x2="80%" y2="100%">
      <stop offset="0%" stop-color="#ffd7ce"/>
      <stop offset="45%" stop-color="#f4685c"/>
      <stop offset="100%" stop-color="#a8171a"/>
    </linearGradient>
    <linearGradient id="stem" x1="0%" y1="0%" x2="0%" y2="100%">
      <stop offset="0%" stop-color="#fffaf0"/>
      <stop offset="100%" stop-color="#e6c98c"/>
    </linearGradient>
    <filter id="ds" x="-60%" y="-60%" width="220%" height="220%">
      <feDropShadow dx="0" dy="3" stdDeviation="2.6" flood-color="#1c0303" flood-opacity="0.5"/>
    </filter>
  </defs>
  <circle cx="64" cy="64" r="54" fill="url(#badge)" filter="url(#ds)"/>
  <path d="M20 42 A 48 48 0 0 1 92 30" stroke="#ffffff" stroke-width="4" stroke-linecap="round" opacity="0.3" fill="none"/>
  <path d="M28 102 A 48 48 0 0 0 104 84" stroke="#1e0202" stroke-width="6" stroke-linecap="round" opacity="0.22" fill="none"/>
  <g filter="url(#ds)">
    <rect x="51" y="66" width="26" height="36" rx="11" fill="url(#stem)" stroke="#78350f" stroke-width="2.5"/>
    <rect x="51" y="88" width="26" height="14" rx="8" fill="#d8a85a" opacity="0.4"/>
    <path d="M26 70 Q28 22 64 20 Q100 22 102 70 Q64 86 26 70 Z" fill="url(#cap)" stroke="#5c0a0a" stroke-width="2.8"/>
    <path d="M26 70 Q64 84 102 70 Q64 90 26 70 Z" fill="#7c1414" opacity="0.4"/>
    <ellipse cx="46" cy="34" rx="14" ry="9" fill="#ffffff" opacity="0.3" transform="rotate(-18 46 34)"/>
    <circle cx="50" cy="44" r="7" fill="#fff5f0" stroke="#c23a34" stroke-width="1"/>
    <circle cx="77" cy="40" r="5.4" fill="#fff5f0" stroke="#c23a34" stroke-width="1"/>
    <circle cx="65" cy="60" r="6.4" fill="#fff5f0" stroke="#c23a34" stroke-width="1"/>
    <circle cx="38" cy="58" r="4.4" fill="#fff5f0" stroke="#c23a34" stroke-width="1"/>
    <circle cx="89" cy="56" r="5" fill="#fff5f0" stroke="#c23a34" stroke-width="1"/>
  </g>
</svg>
